# AST/ASF file generated using VICON BodyLanguage
# -----------------------------------------------
:version 1.10
:name VICON
:units
  mass 1.0
  length 0.45
  angle deg
:documentation
   .ast/.asf automatically generated from VICON data using
   VICON BodyBuilder and BodyLanguage model FoxedUp or BRILLIANT.MOD
:root
   order TX TY TZ RX RY RZ
   axis XYZ
   position 0 0 0  
   orientation 0 0 0 
:bonedata
  begin
     id 1 
     name lhipjoint
     direction 0.528046 -0.759594 0.379717 
     length 2.39752 
     axis 0 0 0  XYZ
  end
  begin
     id 2 
     name lfemur
     direction 0.34202 -0.939693 0  
     length 7.31175  
     axis 0 0 20  XYZ
    dof rx ry rz
    limits (-160.0 20.0)
           (-70.0 70.0)
           (-60.0 70.0)
  end
  begin
     id 3 
     name ltibia
     direction 0.34202 -0.939693 0   
     length 7.52482   
     axis 0 0 20   XYZ
    dof rx
    limits (-10.0 170.0)
  end
  begin
     id 4 
     name lfoot
     direction 0.0675379 -0.185559 0.980309   
     length 2.00961   
     axis -90 7.62852e-016 20   XYZ
    dof rx rz
    limits (-45.0 90.0)
           (-70.0 20.0)
  end
  begin
     id 5 
     name ltoes
     direction 1.5352e-011 -4.22286e-011 1   
     length 1.01383   
     axis -90 7.62852e-016 20   XYZ
    dof rx
    limits (-90.0 20.0)
  end
  begin
     id 6 
     name rhipjoint
     direction -0.510274 -0.769251 0.384544   
     length 2.36742  
     axis 0 0 0  XYZ 
  end
  begin
     id 7 
     name rfemur
     direction -0.34202 -0.939693 0   
     length 7.45325   
     axis 0 0 -20   XYZ
    dof rx ry rz
    limits (-160.0 20.0)
           (-70.0 70.0)
           (-70.0 60.0)
  end
  begin
     id 8 
     name rtibia
     direction -0.34202 -0.939693 0   
     length 7.49587   
     axis 0 0 -20   XYZ
    dof rx
    limits (-10.0 170.0)
 end
 begin
     id 9 
     name rfoot
     direction -0.106475 -0.292536 0.950308   
     length 2.20898  
     axis -90 -7.62852e-016 -20   XYZ
    dof rx rz
    limits (-45.0 90.0)
           (-20.0 70.0)
  end
  begin
     id 10 
     name rtoes
     direction -1.53597e-011 -4.22023e-011 1   
     length 1.10065   
     axis -90 -7.62852e-016 -20   XYZ
    dof rx
    limits (-90.0 20.0)
  end
  begin
     id 11 
     name lowerback
     direction 0.0260024 0.998026 -0.0571652   
     length 2.11214   
     axis 0 0 0   XYZ
    dof rx ry rz
    limits (-20.0 45.0)
           (-30.0 30.0)
           (-30.0 30.0)
  end
  begin
     id 12 
     name upperback
     direction 0.0216202 0.999542 -0.0211766   
     length 2.11689   
     axis 0 0 0   XYZ
    dof rx ry rz
    limits (-20.0 45.0)
           (-30.0 30.0)
           (-30.0 30.0)
  end
  begin
     id 13 
     name thorax
     direction 0.00883312 0.999944 0.00589057   
     length 2.11821   
     axis 0 0 0   XYZ
    dof rx ry rz
    limits (-20.0 45.0)
           (-30.0 30.0)
           (-30.0 30.0)
  end
  begin
     id 14 
     name lowerneck
     direction -0.059386 0.994433 0.0870401   
     length 1.81176   
     axis 0 0 0   XYZ
    dof rx ry rz
    limits (-20.0 45.0)
           (-30.0 30.0)
           (-30.0 30.0)
  end
  begin
     id 15 
     name upperneck
     direction 0.0506457 0.97328 -0.223967   
     length 1.82382   
     axis 0 0 0   XYZ
    dof rx ry rz
    limits (-20.0 45.0)
           (-30.0 30.0)
           (-30.0 30.0)
  end
  begin
     id 16
     name head
     direction 0.0205902 0.996147 -0.0852487  
     length 1.84805  
     axis 0 0 0   XYZ
    dof rx ry rz
    limits (-20.0 45.0)
           (-30.0 30.0)
           (-30.0 30.0)
  end
  begin
     id 17 
     name lclavicle
     direction 0.949493 0.303881 -0.0782325  
     length 3.60584  
     axis 0 0 0   XYZ
    dof ry rz
    limits (-20.0 10.0)
           (0.0 20.0)
  end
  begin
     id 18 
     name lhumerus
     direction 1 -4.48965e-011 1.48782e-027   
     length 4.95681   
     axis 180 -30 -90   XYZ
    dof rx ry rz
    limits (-60.0 90.0)
           (-90.0 90.0)
           (-90.0 90.0)
  end
  begin
     id 19
     name lradius
     direction 1 -4.48952e-011 2.06528e-027   
     length 3.40915   
     axis 180 -30 -90   XYZ
    dof rx
    limits (-10.0 170.0)
  end
  begin
     id 20
     name lwrist
     direction 1 -4.48964e-011 1.28021e-027   
     length 1.70457   
     axis -1.61767e-015 90 90   XYZ
    dof ry
    limits (-180.0 0.0)
 end
  begin
     id 21 
     name lhand
     direction 1 -4.49094e-011 2.54887e-027   
     length 0.616403   
     axis -1.63363e-015 90 90   XYZ
    dof rx rz
    limits (-90.0 90.0)
           (-45.0 45.0)
  end
  begin
     id 22 
     name lfingers
     direction 1 -4.49002e-011 5.11407e-027   
     length 0.49696   
     axis -3.26723e-015 90 90   XYZ
    dof rx
    limits (0.0 90.0)
  end
  begin
     id 23
     name lthumb
     direction 0.707107 -6.34998e-011 0.707107   
     length 0.713539   
     axis -90 45 -2.25915e-014   XYZ
    dof rx rz
    limits (-45.0 45.0)
           (-45.0 45.0)
  end
  begin
     id 24 
     name rclavicle
     direction -0.937751 0.334612 -0.0930482   
     length 3.46287  
     axis 0 0 0   XYZ 
    dof ry rz
    limits (-10.0 20.0)
           (-20.0 0.0)
  end
  begin
     id 25 
     name rhumerus
     direction -1 -4.48962e-011 3.59972e-027  
     length 5.352   
     axis 180 30 90   XYZ
    dof rx ry rz
    limits (-90.0 60.0)
           (-90.0 90.0)
           (-90.0 90.0)
  end
  begin
     id 26 
     name rradius
     direction -1 -4.48987e-011 -3.76925e-027   
     length 3.43721   
     axis 180 30 90   XYZ
    dof rx
    limits (-10.0 170.0)
  end
  begin
     id 27 
     name rwrist
     direction -1 -4.48943e-011 1.28112e-027   
     length 1.7186   
     axis -1.61767e-015 -90 -90   XYZ
    dof ry
    limits (-180.0 0.0)
  end
  begin
     id 28
     name rhand
     direction -1 -4.49027e-011 2.55483e-027   
     length 0.72009   
     axis -1.63363e-015 -90 -90   XYZ
    dof rx rz
    limits (-90.0 90.0)
           (-45.0 45.0)
  end
  begin
     id 29
     name rfingers
     direction -1 -4.48827e-011 5.14506e-027   
     length 0.580555   
     axis -3.26723e-015 -90 -90   XYZ
    dof rx
    limits (0.0 90.0)
  end
  begin
     id 30
     name rthumb
     direction -0.707107 -6.34936e-011 0.707107   
     length 0.833564   
     axis -90 -45 2.25915e-014   XYZ
    dof rx rz
    limits (-45.0 45.0)
           (-45.0 45.0)
  end
:hierarchy
  begin
    root lhipjoint rhipjoint lowerback
    lhipjoint lfemur
    lfemur ltibia
    ltibia lfoot
    lfoot ltoes
    rhipjoint rfemur
    rfemur rtibia
    rtibia rfoot
    rfoot rtoes
    lowerback upperback
    upperback thorax
    thorax lowerneck lclavicle rclavicle
    lowerneck upperneck
    upperneck head
    lclavicle lhumerus
    lhumerus lradius
    lradius lwrist
    lwrist lhand lthumb
    lhand lfingers
    rclavicle rhumerus
    rhumerus rradius
    rradius rwrist
    rwrist rhand rthumb
    rhand rfingers
  end

#!OML:ASF H:\Terrain\Patient Classification 1\Terrain2\Thursday\justin.ASF
:FULLY-SPECIFIED
:DEGREES
539
root 25.3328 17.73 -10.8424 -118.844 88.0815 -116.956
lowerback 7.47358 1.1234 -1.20448
upperback 3.50515 1.5389 1.85684
thorax -0.6516 0.788343 2.46679
lowerneck -12.7391 -1.89706 -8.21268
upperneck 40.7344 1.65392 0.886338
head 16.9562 0.223618 2.37643
rclavicle 2.23633e-015 1.45113e-014
rhumerus -25.7285 -9.20319 -79.9346
rradius 31.9199
rwrist -9.16137
rhand -19.9957 13.3566
rfingers 7.12502
rthumb 6.34395 -16.5284
lclavicle 2.23633e-015 1.45113e-014
lhumerus -32.4788 4.20966 82.5552
lradius 45.5333
lwrist 6.26535
lhand -16.5574 18.4866
lfingers 7.12502
lthumb 9.66238 48.2449
rfemur -11.1893 -7.93483 17.3844
rtibia 62.7861
rfoot -8.01553 -4.99154
rtoes 5.16368
lfemur -13.8937 4.25068 -21.6346
ltibia 21.9745
lfoot -2.26876 -9.59994
ltoes 21.954
540
root 25.4038 17.7353 -10.8357 -118.605 87.4046 -116.635
lowerback 7.43806 0.928972 -0.951127
upperback 3.5402 1.30772 2.19999
thorax -0.586096 0.674773 2.69851
lowerneck -12.7378 -1.77543 -8.13741
upperneck 40.814 1.95708 0.600607
head 16.9905 0.321972 2.2896
rclavicle 3.42904e-015 -1.03368e-014
rhumerus -25.3887 -9.19522 -79.9814
rradius 32.1518
rwrist -9.05211
rhand -20.0167 12.8983
rfingers 7.12502
rthumb 6.32373 -16.9874
lclavicle 3.42904e-015 -1.03368e-014
lhumerus -32.2045 4.56978 82.3899
lradius 45.8866
lwrist 6.06505
lhand -16.3815 18.5128
lfingers 7.12502
lthumb 9.83206 48.2632
rfemur -11.8467 -7.93251 18.1969
rtibia 62.8342
rfoot -8.53716 -5.53972
rtoes 4.67831
lfemur -13.6184 4.05405 -20.9621
ltibia 22.0764
lfoot -2.69581 -9.60095
ltoes 20.2943
541
root 25.4679 17.7428 -10.8297 -118.972 86.8435 -116.916
lowerback 7.50307 0.818874 -0.709592
upperback 3.56277 1.18646 2.44243
thorax -0.592479 0.617405 2.82227
lowerneck -12.8191 -1.7408 -8.28241
upperneck 41.0174 2.07395 0.675046
head 17.1183 0.355904 2.3783
rclavicle -1.49089e-016 1.03368e-014
rhumerus -25.2722 -8.46453 -80.2237
rradius 32.7707
rwrist -10.229
rhand -20.4664 12.3494
rfingers 7.12502
rthumb 5.88953 -17.5487
lclavicle -1.49089e-016 1.03368e-014
lhumerus -31.9664 4.60245 82.2755
lradius 46.3681
lwrist 6.38929
lhand -17.169 18.6538
lfingers 7.12502
lthumb 9.0723 48.4387
rfemur -12.5098 -7.85578 18.9014
rtibia 62.7268
rfoot -9.03979 -6.00493
rtoes 3.90814
lfemur -13.4029 3.90155 -20.4049
ltibia 22.2552
lfoot -3.10747 -9.74371
ltoes 19.06
542
root 25.5171 17.7471 -10.8289 -124.681 86.8766 -122.769
lowerback 7.54069 0.81083 -0.965883
upperback 3.47953 1.1557 2.40552
thorax -0.70122 0.599818 2.92988
lowerneck -12.8094 -1.74882 -8.24695
upperneck 41.1199 2.1037 0.612908
head 17.1746 0.367145 2.35354
rclavicle -7.8023e-015 -6.36111e-015
rhumerus -25.3475 -7.99022 -80.4702
rradius 33.5278
rwrist -11.1908
rhand -20.7754 12.146
rfingers 7.12502
rthumb 5.5912 -17.7602
lclavicle -7.8023e-015 -6.36111e-015
lhumerus -31.7521 4.64191 82.163
lradius 46.861
lwrist 6.61237
lhand -18.3185 18.7765
lfingers 7.12502
lthumb 7.96291 48.6066
rfemur -13.5302 -7.80293 18.8452
rtibia 62.5238
rfoot -9.3152 -6.12147
rtoes 3.73937
lfemur -13.5289 4.02574 -20.6382
ltibia 22.4941
lfoot -3.35062 -10.073
ltoes 18.6254
543
root 25.5689 17.753 -10.8273 -130.686 86.7535 -128.948
lowerback 7.48054 0.706178 -1.13065
upperback 3.4063 1.00322 2.4035
thorax -0.736987 0.521731 3.03342
lowerneck -12.8667 -1.71568 -8.08832
upperneck 41.2474 2.23904 0.37668
head 17.2617 0.414519 2.24731
rclavicle 1.20265e-014 2.78299e-015
rhumerus -25.3556 -7.43098 -80.7182
rradius 34.1288
rwrist -11.7465
rhand -20.9223 12.3487
rfingers 7.12502
rthumb 5.44941 -17.5612
lclavicle 1.20265e-014 2.78299e-015
lhumerus -31.5872 4.8828 81.9768
lradius 47.2916
lwrist 6.44394
lhand -18.3617 18.9917
lfingers 7.12502
lthumb 7.9212 48.8233
rfemur -14.5148 -7.74404 18.8842
rtibia 62.1329
rfoot -9.67514 -6.0181
rtoes 2.08908
lfemur -13.6543 4.11221 -20.7736
ltibia 22.6765
lfoot -3.43771 -10.4162
ltoes 19.4346
544
root 25.6295 17.7592 -10.8229 -131.219 86.1902 -129.517
lowerback 7.43457 0.544602 -0.849743
upperback 3.40038 0.813982 2.5973
thorax -0.705278 0.429878 3.09138
lowerneck -13.0414 -1.73772 -8.26911
upperneck 41.4439 2.27371 0.46976
head 17.417 0.407203 2.33748
rclavicle 2.83268e-015 9.54166e-015
rhumerus -25.2414 -6.96014 -80.8384
rradius 34.5152
rwrist -12.1505
rhand -21.0055 12.271
rfingers 7.12502
rthumb 5.36907 -17.641
lclavicle 2.83268e-015 9.54166e-015
lhumerus -31.3382 5.07563 81.8824
lradius 47.6137
lwrist 6.43231
lhand -17.9874 19.3529
lfingers 7.12502
lthumb 8.28247 49.1705
rfemur -15.1673 -7.37333 19.5004
rtibia 61.522
rfoot -10.6242 -5.73266
rtoes 3.47093
lfemur -13.6255 4.86934 -20.3542
ltibia 22.8411
lfoot -3.40404 -11.5078
ltoes 20.6101
545
root 25.6904 17.759 -10.8194 -134.614 85.8258 -132.89
lowerback 7.47555 0.487729 -0.74179
upperback 3.38964 0.746672 2.58896
thorax -0.733749 0.397935 3.02679
lowerneck -13.0083 -1.81949 -8.20564
upperneck 41.4331 2.10047 0.52253
head 17.4102 0.355271 2.31933
rclavicle 2.88238e-015 7.95139e-015
rhumerus -25.3201 -6.68116 -81.0378
rradius 35.0803
rwrist -12.8046
rhand -21.2547 11.5829
rfingers 7.12502
rthumb 5.12844 -18.335
lclavicle 2.88238e-015 7.95139e-015
lhumerus -31.0643 4.84752 81.7402
lradius 47.993
lwrist 6.69357
lhand -17.708 19.9432
lfingers 7.12502
lthumb 8.55217 49.75
rfemur -15.6743 -7.07207 19.7274
rtibia 60.7
rfoot -11.557 -5.20977
rtoes 5.89089
lfemur -13.6214 5.1097 -20.2428
ltibia 23.2474
lfoot -3.43708 -12.1871
ltoes 22.0509
546
root 25.7504 17.7527 -10.8139 -138.118 85.5699 -136.318
lowerback 7.54098 0.464258 -0.77605
upperback 3.43634 0.713392 2.52719
thorax -0.719427 0.381485 2.98464
lowerneck -13.0074 -1.84003 -7.96528
upperneck 41.3723 2.0137 0.44766
head 17.3796 0.348638 2.22491
rclavicle 8.10048e-015 2.48481e-014
rhumerus -25.2771 -6.49908 -81.294
rradius 35.5539
rwrist -13.3969
rhand -21.3699 11.491
rfingers 7.12502
rthumb 5.01717 -18.4296
lclavicle 8.10048e-015 2.48481e-014
lhumerus -30.7829 4.60071 81.5611
lradius 48.4025
lwrist 6.92209
lhand -17.2961 20.3658
lfingers 7.12502
lthumb 8.94967 50.156
rfemur -16.0645 -6.87687 19.8252
rtibia 59.676
rfoot -11.994 -4.77179
rtoes 4.69849
lfemur -13.5495 3.33888 -20.1928
ltibia 23.844
lfoot -4.05223 -10.8594
ltoes 22.0861
547
root 25.8113 17.7468 -10.7984 -132.016 84.643 -130.106
lowerback 7.61705 0.318654 -0.145042
upperback 3.48699 0.582865 2.97559
thorax -0.700465 0.32457 3.10377
lowerneck -13.1359 -1.73877 -8.10764
upperneck 41.4205 2.20429 0.523694
head 17.428 0.411352 2.32203
rclavicle -1.62506e-014 -1.51076e-014
rhumerus -24.773 -7.12736 -81.199
rradius 35.2375
rwrist -12.4961
rhand -20.8262 12.5412
rfingers 7.12502
rthumb 5.54216 -17.3663
lclavicle -1.62506e-014 -1.51076e-014
lhumerus -30.5943 4.98311 81.5373
lradius 48.7546
lwrist 7.19701
lhand -17.2191 20.3955
lfingers 7.12502
lthumb 9.02393 50.1825
rfemur -16.3613 -6.19245 21.219
rtibia 58.5054
rfoot -12.3723 -4.30701
rtoes 2.55542
lfemur -13.4288 1.96822 -18.9506
ltibia 24.2955
lfoot -4.68009 -9.84622
ltoes 21.3429
